<?xml version="1.0" encoding="UTF-8" standalone="no" ?>
<!DOCTYPE svg PUBLIC "-//W3C//DTD SVG 1.1//EN" "http://www.w3.org/Graphics/SVG/1.1/DTD/svg11.dtd">
<svg xmlns="http://www.w3.org/2000/svg" xmlns:xlink="http://www.w3.org/1999/xlink" version="1.1" width="500" height="500" viewBox="0 0 500 500" xml:space="preserve">
<desc>Created with Fabric.js 3.6.3</desc>
<defs>
</defs>
<g transform="matrix(1 0 0 1 337.9959321474323 249.59805034842287)" style=""  ><path fill="#50595f" opacity="1" d="M-137.13 7.09L-137.13 7.09L-135.84 11.14Q-139.49 12.87-145.08 12.87L-145.08 12.87Q-147.56 12.87-149.37 12.58Q-151.18 12.28-152.85 11.46Q-154.53 10.63-155.55 9.17Q-156.57 7.72-157.18 5.36Q-157.79 3.00-157.79-0.27Q-157.79-3.54-157.18-5.90Q-156.57-8.26-155.55-9.71Q-154.53-11.17-152.85-12.00Q-151.18-12.82-149.37-13.12Q-147.56-13.41-145.08-13.41L-145.08-13.41Q-139.57-13.41-136.23-11.84L-136.23-11.84L-137.53-7.79Q-142.01-9.20-145.00-9.20L-145.00-9.20Q-146.89-9.20-148.03-8.95Q-149.17-8.69-150.32-7.84Q-151.46-7.00-151.99-5.13Q-152.52-3.26-152.52-0.27L-152.52-0.27Q-152.52 2.17-152.13 3.84Q-151.73 5.51-151.14 6.46Q-150.55 7.40-149.49 7.91Q-148.43 8.43-147.46 8.54Q-146.50 8.66-145.00 8.66L-145.00 8.66Q-141.74 8.66-137.13 7.09Z"/><path fill="#50595f" opacity="1" d="M-120.88-9.24L-120.88-9.24Q-121.98-9.24-122.55-9.22Q-123.12-9.20-124.05-9.03Q-124.97-8.85-125.47-8.53Q-125.96-8.22-126.59-7.57Q-127.22-6.92-127.53-5.98Q-127.85-5.03-128.06-3.60Q-128.28-2.16-128.28-0.31Q-128.28 1.54-128.06 2.98Q-127.85 4.41-127.53 5.36Q-127.22 6.30-126.59 6.95Q-125.96 7.60-125.47 7.91Q-124.97 8.23-124.05 8.41Q-123.12 8.58-122.55 8.60Q-121.98 8.62-120.88 8.62Q-119.78 8.62-119.21 8.60Q-118.64 8.58-117.71 8.41Q-116.79 8.23-116.30 7.91Q-115.81 7.60-115.18 6.95Q-114.55 6.30-114.23 5.36Q-113.92 4.41-113.70 2.98Q-113.48 1.54-113.48-0.31Q-113.48-2.16-113.72-3.60Q-113.96-5.03-114.27-5.98Q-114.59-6.92-115.22-7.57Q-115.85-8.22-116.34-8.53Q-116.83-8.85-117.75-9.03Q-118.68-9.20-119.25-9.22Q-119.82-9.24-120.88-9.24ZM-132.88 5.40Q-133.55 3.00-133.55-0.31Q-133.55-3.61-132.88-6.02Q-132.21-8.42-131.13-9.83Q-130.05-11.25-128.34-12.06Q-126.63-12.86-124.92-13.14Q-123.20-13.41-120.88-13.41Q-118.56-13.41-116.85-13.14Q-115.14-12.86-113.43-12.06Q-111.71-11.25-110.63-9.83Q-109.55-8.42-108.88-6.02Q-108.21-3.61-108.21-0.31Q-108.21 3.00-108.88 5.40Q-109.55 7.80-110.63 9.21Q-111.71 10.63-113.43 11.44Q-115.14 12.24-116.85 12.52Q-118.56 12.79-120.88 12.79Q-123.20 12.79-124.92 12.52Q-126.63 12.24-128.34 11.44Q-130.05 10.63-131.13 9.21Q-132.21 7.80-132.88 5.40Z"/><path fill="#50595f" opacity="1" d="M-82.16-12.90L-82.16 12.36L-87.63 12.36L-97.82-4.32L-97.82 12.36L-102.86 12.36L-102.86-12.90L-97.35-12.90L-87.16 3.70L-87.16-12.90L-82.16-12.90Z"/><path fill="#50595f" opacity="1" d="M-57.17-11.84L-57.17-11.84L-58.47-7.79Q-62.21-9.16-66.66-9.16L-66.66-9.16Q-69.10-9.16-70.26-8.55Q-71.42-7.94-71.42-6.45L-71.42-6.45Q-71.42-4.72-71.06-4.32Q-70.71-3.93-68.82-3.34L-68.82-3.34Q-67.92-3.10-66.30-2.77Q-64.69-2.43-63.75-2.20Q-62.80-1.96-61.46-1.53Q-60.13-1.10-59.34-0.55Q-58.55 0.01-57.76 0.81Q-56.98 1.62-56.60 2.78Q-56.23 3.94-56.19 5.40L-56.19 5.40Q-56.19 7.64-56.90 9.12Q-57.61 10.59-59.04 11.38Q-60.48 12.16-62.19 12.48Q-63.90 12.79-66.34 12.79L-66.34 12.79Q-69.10 12.79-72.28 12.24Q-75.47 11.69-77.20 10.87L-77.20 10.87Q-76.38 7.80-75.98 6.73L-75.98 6.73Q-71.81 8.54-65.99 8.54L-65.99 8.54Q-64.89 8.54-64.32 8.52Q-63.75 8.51-63.04 8.35Q-62.33 8.19-62.01 7.88Q-61.70 7.56-61.46 6.99Q-61.23 6.42-61.23 5.55L-61.23 5.55Q-61.23 3.98-61.82 3.51Q-62.41 3.04-64.38 2.56L-64.38 2.56Q-70.79 1.19-72.60 0.40L-72.60 0.40Q-75.35-0.78-76.10-3.26L-76.10-3.26Q-76.50-4.56-76.50-6.49L-76.50-6.49Q-76.50-9.79-73.86-11.58Q-71.22-13.37-67.25-13.37L-67.25-13.37Q-60.40-13.37-57.17-11.84Z"/><path fill="#50595f" opacity="1" d="M-40.53-8.69L-40.53 12.36L-45.72 12.36L-45.72-8.69L-53.48-8.69L-53.08-12.90L-32.27-12.90L-32.66-8.69L-40.53-8.69Z"/><path fill="#50595f" opacity="1" d="M-15.07 3.11L-8.07 12.36L-14.01 12.36L-20.70 3.27L-24.08 3.27L-24.08 12.36L-29.28 12.36L-29.28-12.90L-19.04-12.90Q-16.05-12.90-14.32-12.61Q-12.59-12.31-11.35-11.43Q-10.11-10.54-9.66-8.99Q-9.21-7.43-9.21-4.80L-9.21-4.80Q-9.21-0.70-10.49 0.99Q-11.76 2.68-15.07 3.11L-15.07 3.11ZM-24.08-8.69L-24.08-0.94L-18.97-0.94Q-16.29-0.94-15.40-1.57Q-14.52-2.20-14.52-4.80L-14.52-4.80Q-14.52-7.43-15.38-8.06Q-16.25-8.69-18.97-8.69L-18.97-8.69L-24.08-8.69Z"/><path fill="#50595f" opacity="1" d="M12.51 1.70L12.51 1.70L12.51-12.90L17.67-12.90L17.67 1.74Q17.67 4.88 17.28 6.81Q16.88 8.74 15.74 10.18Q14.60 11.61 12.51 12.20Q10.43 12.79 7.04 12.79Q3.66 12.79 1.56 12.20Q-0.55 11.61-1.71 10.18Q-2.87 8.74-3.28 6.81Q-3.70 4.88-3.70 1.74L-3.70 1.74L-3.70-12.90L1.46-12.90L1.46 1.70Q1.46 5.63 2.50 7.09Q3.54 8.54 7.04 8.54L7.04 8.54Q10.51 8.54 11.51 7.11Q12.51 5.67 12.51 1.70Z"/><path fill="#50595f" opacity="1" d="M37.82 3.11L44.82 12.36L38.88 12.36L32.19 3.27L28.81 3.27L28.81 12.36L23.61 12.36L23.61-12.90L33.84-12.90Q36.83-12.90 38.56-12.61Q40.30-12.31 41.54-11.43Q42.77-10.54 43.23-8.99Q43.68-7.43 43.68-4.80L43.68-4.80Q43.68-0.70 42.40 0.99Q41.12 2.68 37.82 3.11L37.82 3.11ZM28.81-8.69L28.81-0.94L33.92-0.94Q36.60-0.94 37.48-1.57Q38.37-2.20 38.37-4.80L38.37-4.80Q38.37-7.43 37.50-8.06Q36.64-8.69 33.92-8.69L33.92-8.69L28.81-8.69Z"/><path fill="#50595f" opacity="1" d="M68.82 8.11L68.43 12.36L49.94 12.36L49.94-12.90L68.82-12.90L68.43-8.69L55.13-8.69L55.13-2.83L65.48-2.83L65.48 1.38L55.13 1.38L55.13 8.11L68.82 8.11Z"/><path fill="#50595f" opacity="1" d="M81.65 12.36L81.65 12.36L72.21 12.36L72.21-12.90L81.26-12.90Q83.82-12.90 85.57-12.68Q87.32-12.47 89.03-11.72Q90.74-10.97 91.75-9.64Q92.75-8.30 93.36-6.00Q93.97-3.69 93.97-0.43L93.97-0.43Q93.97 2.92 93.42 5.24Q92.87 7.56 91.94 8.94Q91.02 10.32 89.38 11.08Q87.75 11.85 86.00 12.11Q84.25 12.36 81.65 12.36ZM77.40-8.69L77.40 8.11L81.26 8.11Q83.54 8.11 84.80 7.86Q86.06 7.60 87.04 6.70Q88.03 5.79 88.36 4.12Q88.70 2.45 88.70-0.47L88.70-0.47Q88.70-2.16 88.48-3.46Q88.26-4.76 87.97-5.62Q87.67-6.49 87.08-7.08Q86.49-7.67 85.96-7.98Q85.43-8.30 84.52-8.45Q83.62-8.61 82.97-8.65Q82.32-8.69 81.18-8.69L81.18-8.69L77.40-8.69Z"/><path fill="#50595f" opacity="1" d="M118.21 8.11L117.82 12.36L99.32 12.36L99.32-12.90L118.21-12.90L117.82-8.69L104.51-8.69L104.51-2.83L114.86-2.83L114.86 1.38L104.51 1.38L104.51 8.11L118.21 8.11Z"/><path fill="#50595f" opacity="1" d="M135.88-2.16L135.88 1.62L129.15 1.62L129.15 8.11L125.17 8.11L125.17 1.62L118.52 1.62L118.52-2.16L125.17-2.16L125.17-8.53L129.15-8.53L129.15-2.16L135.88-2.16Z"/></g><g transform="matrix(1 0 0 1 326.61 281.80679971342056)" style=""  ><path fill="#67727A" opacity="1" d="M-146.72-2.14L-146.72 1.59L-144.72 1.59L-144.72 2.00L-147.20 2.00L-147.20-2.14L-146.72-2.14Z"/><path fill="#67727A" opacity="1" d="M-141.54-1.34Q-142.05-0.86-142.05-0.07Q-142.05 0.72-141.54 1.20Q-141.03 1.68-140.31 1.68Q-139.58 1.68-139.08 1.20Q-138.57 0.72-138.57-0.07Q-138.57-0.86-139.08-1.34Q-139.58-1.81-140.31-1.81Q-141.03-1.81-141.54-1.34ZM-138.09-0.07L-138.09-0.07Q-138.09 0.88-138.73 1.48Q-139.36 2.08-140.31 2.08L-140.31 2.08Q-141.26 2.08-141.89 1.48Q-142.52 0.89-142.52-0.07L-142.52-0.07Q-142.52-1.02-141.89-1.62Q-141.26-2.22-140.31-2.22L-140.31-2.22Q-139.35-2.22-138.72-1.62Q-138.09-1.02-138.09-0.07Z"/><path fill="#67727A" opacity="1" d="M-132.03-1.80L-132.03-1.80L-132.23-1.42Q-132.82-1.81-133.45-1.81L-133.45-1.81Q-134.22-1.81-134.71-1.32Q-135.20-0.83-135.20-0.08L-135.20-0.08Q-135.20 0.73-134.71 1.19Q-134.22 1.64-133.46 1.64L-133.46 1.64Q-133.06 1.64-132.77 1.56Q-132.49 1.48-132.17 1.27L-132.17 1.27L-132.03 1.69Q-132.62 2.08-133.53 2.08L-133.53 2.08Q-133.95 2.08-134.33 1.95Q-134.71 1.82-135.01 1.56Q-135.32 1.31-135.50 0.88Q-135.67 0.46-135.67-0.08L-135.67-0.08Q-135.67-1.02-135.03-1.62Q-134.38-2.22-133.45-2.22L-133.45-2.22Q-132.62-2.22-132.03-1.80Z"/><path fill="#67727A" opacity="1" d="M-129.73 2.00L-127.95-2.14L-127.39-2.14L-125.60 2.00L-126.11 2.00L-126.70 0.61L-128.66 0.61L-129.24 2.00L-129.73 2.00ZM-127.63-1.65L-127.72-1.65L-128.50 0.21L-126.86 0.21L-127.63-1.65Z"/><path fill="#67727A" opacity="1" d="M-123.12 2.00L-123.12-2.14L-122.61-2.14L-119.75 1.43L-119.77 0.17L-119.77-2.14L-119.32-2.14L-119.32 2.00L-119.85 2.00L-122.71-1.60L-122.67-0.13L-122.67 2.00L-123.12 2.00Z"/><path fill="#67727A" opacity="1" d="M-116.58 2.00L-116.58-2.14L-115.07-2.14Q-114.00-2.14-113.42-1.60Q-112.84-1.07-112.84-0.09L-112.84-0.09Q-112.84 0.90-113.48 1.45Q-114.12 2.00-115.21 2.00L-115.21 2.00L-116.58 2.00ZM-115.07-1.73L-116.10-1.73L-116.10 1.59L-115.21 1.59Q-114.35 1.59-113.84 1.17Q-113.32 0.76-113.32-0.09L-113.32-0.09Q-113.32-1.73-115.07-1.73L-115.07-1.73Z"/><path fill="#67727A" opacity="1" d="M-109.44-1.34Q-109.94-0.86-109.94-0.07Q-109.94 0.72-109.44 1.20Q-108.93 1.68-108.20 1.68Q-107.48 1.68-106.97 1.20Q-106.47 0.72-106.47-0.07Q-106.47-0.86-106.97-1.34Q-107.48-1.81-108.20-1.81Q-108.93-1.81-109.44-1.34ZM-105.99-0.07L-105.99-0.07Q-105.99 0.88-106.62 1.48Q-107.26 2.08-108.20 2.08L-108.20 2.08Q-109.16 2.08-109.79 1.48Q-110.42 0.89-110.42-0.07L-110.42-0.07Q-110.42-1.02-109.79-1.62Q-109.15-2.22-108.20-2.22L-108.20-2.22Q-107.25-2.22-106.62-1.62Q-105.99-1.02-105.99-0.07Z"/><path fill="#67727A" opacity="1" d=""/><path fill="#67727A" opacity="1" d="M-96.94 2.00L-99.62 2.00L-99.62-2.14L-97.03-2.14L-97.03-1.73L-99.15-1.73L-99.15-0.36L-97.24-0.36L-97.24 0.05L-99.15 0.05L-99.15 1.59L-96.94 1.59L-96.94 2.00Z"/><path fill="#67727A" opacity="1" d="M-91.75 1.96L-90.29 2.27L-90.40 2.74L-93.15 1.97Q-93.79 1.80-94.20 1.24Q-94.61 0.68-94.61-0.07L-94.61-0.07Q-94.61-1.02-93.98-1.62Q-93.35-2.22-92.40-2.22Q-91.44-2.22-90.81-1.62Q-90.18-1.02-90.18-0.07L-90.18-0.07Q-90.18 0.70-90.61 1.24Q-91.04 1.77-91.75 1.96L-91.75 1.96ZM-93.63-1.34Q-94.14-0.86-94.14-0.07Q-94.14 0.72-93.63 1.20Q-93.12 1.68-92.40 1.68Q-91.67 1.68-91.17 1.20Q-90.66 0.72-90.66-0.07Q-90.66-0.86-91.17-1.34Q-91.67-1.81-92.40-1.81Q-93.12-1.81-93.63-1.34Z"/><path fill="#67727A" opacity="1" d="M-87.64 0.15L-87.64-2.14L-87.16-2.14L-87.16 0.20Q-87.16 0.93-86.83 1.30Q-86.50 1.68-85.92 1.68Q-85.33 1.68-85.00 1.30Q-84.67 0.93-84.67 0.20L-84.67 0.20L-84.67-2.14L-84.19-2.14L-84.19 0.15Q-84.19 1.12-84.65 1.60Q-85.10 2.08-85.92 2.08Q-86.73 2.08-87.18 1.61Q-87.64 1.13-87.64 0.15L-87.64 0.15Z"/><path fill="#67727A" opacity="1" d="M-81.49 2.00L-81.49-2.14L-81.01-2.14L-81.01 2.00L-81.49 2.00Z"/><path fill="#67727A" opacity="1" d="M-78.27 2.00L-78.27-2.14L-76.87-2.14Q-76.16-2.14-75.71-1.80Q-75.26-1.46-75.26-0.86L-75.26-0.86Q-75.26-0.25-75.71 0.09Q-76.15 0.43-76.87 0.43L-76.87 0.43L-77.79 0.43L-77.79 2.00L-78.27 2.00ZM-76.97-1.73L-77.79-1.73L-77.79 0.02L-76.97 0.02Q-75.74 0.02-75.74-0.86L-75.74-0.86Q-75.74-1.73-76.97-1.73L-76.97-1.73Z"/><path fill="#67727A" opacity="1" d="M-73.38 2.00L-71.59-2.14L-71.03-2.14L-69.25 2.00L-69.75 2.00L-70.35 0.61L-72.31 0.61L-72.89 2.00L-73.38 2.00ZM-71.28-1.65L-71.37-1.65L-72.15 0.21L-70.51 0.21L-71.28-1.65Z"/><path fill="#67727A" opacity="1" d="M-66.77 2.00L-66.77-2.14L-66.11-2.14L-64.76-0.15L-63.41-2.14L-62.76-2.14L-62.76 2.00L-63.23 2.00L-63.23-0.35L-63.22-1.62L-63.27-1.62L-64.69 0.46L-64.86 0.46L-66.26-1.62L-66.31-1.62L-66.30-0.35L-66.30 2.00L-66.77 2.00Z"/><path fill="#67727A" opacity="1" d="M-57.33 2.00L-60.02 2.00L-60.02-2.14L-57.43-2.14L-57.43-1.73L-59.54-1.73L-59.54-0.36L-57.64-0.36L-57.64 0.05L-59.54 0.05L-59.54 1.59L-57.33 1.59L-57.33 2.00Z"/><path fill="#67727A" opacity="1" d="M-54.72 2.00L-54.72-2.14L-54.21-2.14L-51.35 1.43L-51.37 0.17L-51.37-2.14L-50.92-2.14L-50.92 2.00L-51.45 2.00L-54.32-1.60L-54.27-0.13L-54.27 2.00L-54.72 2.00Z"/><path fill="#67727A" opacity="1" d="M-47.07-1.73L-48.34-1.73L-48.34-2.14L-45.32-2.14L-45.32-1.73L-46.59-1.73L-46.59 2.00L-47.07 2.00L-47.07-1.73Z"/><path fill="#67727A" opacity="1" d="M-42.24-1.34Q-42.74-0.86-42.74-0.07Q-42.74 0.72-42.24 1.20Q-41.73 1.68-41.00 1.68Q-40.28 1.68-39.77 1.20Q-39.27 0.72-39.27-0.07Q-39.27-0.86-39.77-1.34Q-40.28-1.81-41.00-1.81Q-41.73-1.81-42.24-1.34ZM-38.79-0.07L-38.79-0.07Q-38.79 0.88-39.42 1.48Q-40.06 2.08-41.00 2.08L-41.00 2.08Q-41.96 2.08-42.59 1.48Q-43.22 0.89-43.22-0.07L-43.22-0.07Q-43.22-1.02-42.59-1.62Q-41.95-2.22-41.00-2.22L-41.00-2.22Q-40.05-2.22-39.42-1.62Q-38.79-1.02-38.79-0.07Z"/><path fill="#67727A" opacity="1" d="M-33.64-1.88L-33.64-1.88L-33.84-1.51Q-34.34-1.82-34.94-1.82L-34.94-1.82Q-35.38-1.82-35.60-1.62Q-35.82-1.43-35.82-1.16L-35.82-1.16Q-35.82-0.90-35.64-0.73Q-35.47-0.57-35.09-0.49L-35.09-0.49L-34.49-0.36Q-33.39-0.13-33.39 0.86L-33.39 0.86Q-33.39 1.38-33.80 1.73Q-34.21 2.08-34.98 2.08L-34.98 2.08Q-35.42 2.08-35.73 2.01Q-36.05 1.93-36.40 1.75L-36.40 1.75L-36.24 1.31Q-35.63 1.66-34.99 1.66L-34.99 1.66Q-34.40 1.66-34.13 1.44Q-33.86 1.22-33.86 0.87L-33.86 0.87Q-33.86 0.52-34.05 0.33Q-34.24 0.14-34.70 0.05L-34.70 0.05L-35.36-0.09Q-35.77-0.18-36.02-0.44Q-36.27-0.71-36.27-1.13L-36.27-1.13Q-36.27-1.62-35.92-1.92Q-35.56-2.22-34.94-2.22L-34.94-2.22Q-34.19-2.22-33.64-1.88Z"/><path fill="#67727A" opacity="1" d="M-30.78 2.73L-30.78 2.73L-30.91 2.52Q-30.69 2.43-30.60 2.31Q-30.51 2.19-30.51 2.00L-30.51 2.00Q-30.67 2.00-30.77 1.91Q-30.87 1.82-30.87 1.69L-30.87 1.69Q-30.87 1.55-30.79 1.46Q-30.71 1.37-30.54 1.37L-30.54 1.37Q-30.35 1.37-30.25 1.52Q-30.15 1.66-30.15 1.89L-30.15 1.89Q-30.15 2.18-30.31 2.40Q-30.48 2.63-30.78 2.73Z"/><path fill="#67727A" opacity="1" d=""/><path fill="#67727A" opacity="1" d="M-20.27-1.80L-20.27-1.80L-20.47-1.42Q-21.05-1.81-21.69-1.81L-21.69-1.81Q-22.45-1.81-22.94-1.32Q-23.43-0.83-23.43-0.08L-23.43-0.08Q-23.43 0.73-22.95 1.19Q-22.46 1.64-21.70 1.64L-21.70 1.64Q-21.30 1.64-21.01 1.56Q-20.73 1.48-20.40 1.27L-20.40 1.27L-20.26 1.69Q-20.86 2.08-21.77 2.08L-21.77 2.08Q-22.19 2.08-22.57 1.95Q-22.94 1.82-23.25 1.56Q-23.56 1.31-23.73 0.88Q-23.91 0.46-23.91-0.08L-23.91-0.08Q-23.91-1.02-23.27-1.62Q-22.62-2.22-21.69-2.22L-21.69-2.22Q-20.86-2.22-20.27-1.80Z"/><path fill="#67727A" opacity="1" d="M-16.96-1.34Q-17.46-0.86-17.46-0.07Q-17.46 0.72-16.96 1.20Q-16.45 1.68-15.73 1.68Q-15.00 1.68-14.49 1.20Q-13.99 0.72-13.99-0.07Q-13.99-0.86-14.49-1.34Q-15.00-1.81-15.73-1.81Q-16.45-1.81-16.96-1.34ZM-13.51-0.07L-13.51-0.07Q-13.51 0.88-14.14 1.48Q-14.78 2.08-15.73 2.08L-15.73 2.08Q-16.68 2.08-17.31 1.48Q-17.94 0.89-17.94-0.07L-17.94-0.07Q-17.94-1.02-17.31-1.62Q-16.67-2.22-15.73-2.22L-15.73-2.22Q-14.77-2.22-14.14-1.62Q-13.51-1.02-13.51-0.07Z"/><path fill="#67727A" opacity="1" d="M-10.93 2.00L-10.93-2.14L-10.42-2.14L-7.56 1.43L-7.58 0.17L-7.58-2.14L-7.13-2.14L-7.13 2.00L-7.66 2.00L-10.52-1.60L-10.48-0.13L-10.48 2.00L-10.93 2.00Z"/><path fill="#67727A" opacity="1" d="M-1.76-1.88L-1.76-1.88L-1.96-1.51Q-2.46-1.82-3.06-1.82L-3.06-1.82Q-3.50-1.82-3.72-1.62Q-3.94-1.43-3.94-1.16L-3.94-1.16Q-3.94-0.90-3.76-0.73Q-3.59-0.57-3.21-0.49L-3.21-0.49L-2.60-0.36Q-1.51-0.13-1.51 0.86L-1.51 0.86Q-1.51 1.38-1.92 1.73Q-2.33 2.08-3.10 2.08L-3.10 2.08Q-3.53 2.08-3.85 2.01Q-4.16 1.93-4.52 1.75L-4.52 1.75L-4.36 1.31Q-3.74 1.66-3.11 1.66L-3.11 1.66Q-2.52 1.66-2.25 1.44Q-1.98 1.22-1.98 0.87L-1.98 0.87Q-1.98 0.52-2.17 0.33Q-2.36 0.14-2.81 0.05L-2.81 0.05L-3.48-0.09Q-3.89-0.18-4.14-0.44Q-4.39-0.71-4.39-1.13L-4.39-1.13Q-4.39-1.62-4.03-1.92Q-3.68-2.22-3.06-2.22L-3.06-2.22Q-2.31-2.22-1.76-1.88Z"/><path fill="#67727A" opacity="1" d="M2.02-1.73L0.75-1.73L0.75-2.14L3.77-2.14L3.77-1.73L2.50-1.73L2.50 2.00L2.02 2.00L2.02-1.73Z"/><path fill="#67727A" opacity="1" d="M6.35 2.00L6.35-2.14L7.98-2.14Q8.60-2.14 8.99-1.83Q9.38-1.52 9.38-0.99L9.38-0.99Q9.38-0.63 9.13-0.33Q8.88-0.03 8.42 0.09L8.42 0.09L9.68 2.00L9.10 2.00L7.94 0.17L6.83 0.17L6.83 2.00L6.35 2.00ZM7.88-1.73L6.83-1.73L6.83-0.24L7.89-0.24Q8.34-0.24 8.62-0.44Q8.90-0.63 8.90-0.99L8.90-0.99Q8.90-1.73 7.88-1.73L7.88-1.73Z"/><path fill="#67727A" opacity="1" d="M12.03 0.15L12.03-2.14L12.51-2.14L12.51 0.20Q12.51 0.93 12.84 1.30Q13.16 1.68 13.75 1.68Q14.34 1.68 14.67 1.30Q15.00 0.93 15.00 0.20L15.00 0.20L15.00-2.14L15.47-2.14L15.47 0.15Q15.47 1.12 15.02 1.60Q14.56 2.08 13.75 2.08Q12.93 2.08 12.48 1.61Q12.03 1.13 12.03 0.15L12.03 0.15Z"/><path fill="#67727A" opacity="1" d="M18.18 2.00L18.18-2.14L18.66-2.14L18.66 2.00L18.18 2.00Z"/><path fill="#67727A" opacity="1" d="M21.40 2.00L21.40-2.14L21.90-2.14L24.77 1.43L24.74 0.17L24.74-2.14L25.20-2.14L25.20 2.00L24.67 2.00L21.80-1.60L21.85-0.13L21.85 2.00L21.40 2.00Z"/><path fill="#67727A" opacity="1" d="M27.93 2.00L27.93-2.14L29.44-2.14Q30.51-2.14 31.09-1.60Q31.68-1.07 31.68-0.09L31.68-0.09Q31.68 0.90 31.04 1.45Q30.40 2.00 29.31 2.00L29.31 2.00L27.93 2.00ZM29.44-1.73L28.41-1.73L28.41 1.59L29.31 1.59Q30.16 1.59 30.68 1.17Q31.19 0.76 31.19-0.09L31.19-0.09Q31.19-1.73 29.44-1.73L29.44-1.73Z"/><path fill="#67727A" opacity="1" d="M35.08-1.34Q34.57-0.86 34.57-0.07Q34.57 0.72 35.08 1.20Q35.58 1.68 36.31 1.68Q37.04 1.68 37.54 1.20Q38.05 0.72 38.05-0.07Q38.05-0.86 37.54-1.34Q37.04-1.81 36.31-1.81Q35.58-1.81 35.08-1.34ZM38.53-0.07L38.53-0.07Q38.53 0.88 37.89 1.48Q37.26 2.08 36.31 2.08L36.31 2.08Q35.36 2.08 34.73 1.48Q34.10 0.89 34.10-0.07L34.10-0.07Q34.10-1.02 34.73-1.62Q35.36-2.22 36.31-2.22L36.31-2.22Q37.27-2.22 37.90-1.62Q38.53-1.02 38.53-0.07Z"/><path fill="#67727A" opacity="1" d=""/><path fill="#67727A" opacity="1" d="M48.37-1.80L48.37-1.80L48.18-1.42Q47.59-1.81 46.95-1.81L46.95-1.81Q46.19-1.81 45.70-1.32Q45.21-0.83 45.21-0.08L45.21-0.08Q45.21 0.73 45.70 1.19Q46.18 1.64 46.95 1.64L46.95 1.64Q47.35 1.64 47.63 1.56Q47.92 1.48 48.24 1.27L48.24 1.27L48.38 1.69Q47.78 2.08 46.88 2.08L46.88 2.08Q46.46 2.08 46.08 1.95Q45.70 1.82 45.39 1.56Q45.09 1.31 44.91 0.88Q44.73 0.46 44.73-0.08L44.73-0.08Q44.73-1.02 45.38-1.62Q46.03-2.22 46.95-2.22L46.95-2.22Q47.79-2.22 48.37-1.80Z"/><path fill="#67727A" opacity="1" d="M51.69-1.34Q51.18-0.86 51.18-0.07Q51.18 0.72 51.69 1.20Q52.19 1.68 52.92 1.68Q53.65 1.68 54.15 1.20Q54.66 0.72 54.66-0.07Q54.66-0.86 54.15-1.34Q53.65-1.81 52.92-1.81Q52.19-1.81 51.69-1.34ZM55.13-0.07L55.13-0.07Q55.13 0.88 54.50 1.48Q53.87 2.08 52.92 2.08L52.92 2.08Q51.96 2.08 51.33 1.48Q50.70 0.89 50.70-0.07L50.70-0.07Q50.70-1.02 51.34-1.62Q51.97-2.22 52.92-2.22L52.92-2.22Q53.87-2.22 54.50-1.62Q55.13-1.02 55.13-0.07Z"/><path fill="#67727A" opacity="1" d="M57.71 2.00L57.71-2.14L58.38-2.14L59.72-0.15L61.07-2.14L61.72-2.14L61.72 2.00L61.25 2.00L61.25-0.35L61.27-1.62L61.21-1.62L59.79 0.46L59.62 0.46L58.22-1.62L58.17-1.62L58.18-0.35L58.18 2.00L57.71 2.00Z"/><path fill="#67727A" opacity="1" d="M64.43 0.15L64.43-2.14L64.91-2.14L64.91 0.20Q64.91 0.93 65.23 1.30Q65.56 1.68 66.15 1.68Q66.73 1.68 67.06 1.30Q67.40 0.93 67.40 0.20L67.40 0.20L67.40-2.14L67.87-2.14L67.87 0.15Q67.87 1.12 67.42 1.60Q66.96 2.08 66.15 2.08Q65.33 2.08 64.88 1.61Q64.43 1.13 64.43 0.15L64.43 0.15Z"/><path fill="#67727A" opacity="1" d="M70.58 2.00L70.58-2.14L71.09-2.14L73.95 1.43L73.93 0.17L73.93-2.14L74.38-2.14L74.38 2.00L73.85 2.00L70.99-1.60L71.03-0.13L71.03 2.00L70.58 2.00Z"/><path fill="#67727A" opacity="1" d="M77.12 2.00L77.12-2.14L77.59-2.14L77.59 2.00L77.12 2.00Z"/><path fill="#67727A" opacity="1" d="M80.33 2.00L80.33-2.14L81.84-2.14Q82.91-2.14 83.49-1.60Q84.07-1.07 84.07-0.09L84.07-0.09Q84.07 0.90 83.44 1.45Q82.80 2.00 81.71 2.00L81.71 2.00L80.33 2.00ZM81.84-1.73L80.81-1.73L80.81 1.59L81.71 1.59Q82.56 1.59 83.08 1.17Q83.59 0.76 83.59-0.09L83.59-0.09Q83.59-1.73 81.84-1.73L81.84-1.73Z"/><path fill="#67727A" opacity="1" d="M86.21 2.00L88.00-2.14L88.56-2.14L90.34 2.00L89.84 2.00L89.24 0.61L87.28 0.61L86.70 2.00L86.21 2.00ZM88.31-1.65L88.22-1.65L87.44 0.21L89.08 0.21L88.31-1.65Z"/><path fill="#67727A" opacity="1" d="M92.82 2.00L92.82-2.14L94.33-2.14Q95.40-2.14 95.98-1.60Q96.56-1.07 96.56-0.09L96.56-0.09Q96.56 0.90 95.93 1.45Q95.29 2.00 94.20 2.00L94.20 2.00L92.82 2.00ZM94.33-1.73L93.30-1.73L93.30 1.59L94.20 1.59Q95.05 1.59 95.57 1.17Q96.08 0.76 96.08-0.09L96.08-0.09Q96.08-1.73 94.33-1.73L94.33-1.73Z"/><path fill="#67727A" opacity="1" d="M101.83 2.00L99.14 2.00L99.14-2.14L101.73-2.14L101.73-1.73L99.62-1.73L99.62-0.36L101.52-0.36L101.52 0.05L99.62 0.05L99.62 1.59L101.83 1.59L101.83 2.00Z"/><path fill="#67727A" opacity="1" d="M107.08-1.88L107.08-1.88L106.87-1.51Q106.37-1.82 105.78-1.82L105.78-1.82Q105.33-1.82 105.11-1.62Q104.90-1.43 104.90-1.16L104.90-1.16Q104.90-0.90 105.07-0.73Q105.24-0.57 105.62-0.49L105.62-0.49L106.23-0.36Q107.32-0.13 107.32 0.86L107.32 0.86Q107.32 1.38 106.91 1.73Q106.50 2.08 105.74 2.08L105.74 2.08Q105.30 2.08 104.98 2.01Q104.67 1.93 104.31 1.75L104.31 1.75L104.48 1.31Q105.09 1.66 105.73 1.66L105.73 1.66Q106.31 1.66 106.58 1.44Q106.85 1.22 106.85 0.87L106.85 0.87Q106.85 0.52 106.66 0.33Q106.47 0.14 106.02 0.05L106.02 0.05L105.35-0.09Q104.94-0.18 104.69-0.44Q104.45-0.71 104.45-1.13L104.45-1.13Q104.45-1.62 104.80-1.92Q105.15-2.22 105.78-2.22L105.78-2.22Q106.53-2.22 107.08-1.88Z"/></g><g transform="matrix(0.5153128378779978 0.12390592850273305 -0.12390592850273302 0.5153128378779976 125.69043181509844 250.00413434167328)"  >
<g style=""   >
		<g transform="matrix(1 0 0 1 42.11 -33.37)"  >
<polygon style="stroke: none; stroke-width: 1; stroke-dasharray: none; stroke-linecap: butt; stroke-dashoffset: 0; stroke-linejoin: miter; stroke-miterlimit: 4; fill: rgb(255,208,89); fill-rule: evenodd; opacity: 1;"  points="-16.580000000000013,-16.540000000000006 0,16.539999999999992 16.579999999999984,-16.540000000000006 " />
</g>
		<g transform="matrix(1 0 0 1 -25.279999999999998 33.255)"  >
<polygon style="stroke: none; stroke-width: 1; stroke-dasharray: none; stroke-linecap: butt; stroke-dashoffset: 0; stroke-linejoin: miter; stroke-miterlimit: 4; fill: rgb(79,181,185); fill-rule: evenodd; opacity: 1;"  points="-16.580000000000005,-16.53500000000001 -1.421085e-14,16.534999999999997 16.58,-16.53500000000001 " />
</g>
		<g transform="matrix(1 0 0 1 -8.349999999999994 33.255)"  >
<polygon style="stroke: none; stroke-width: 1; stroke-dasharray: none; stroke-linecap: butt; stroke-dashoffset: 0; stroke-linejoin: miter; stroke-miterlimit: 4; fill: rgb(253,196,70); fill-rule: evenodd; opacity: 1;"  points="1.421085e-14,-16.53500000000001 -16.58,16.534999999999997 16.580000000000013,16.534999999999997 " />
</g>
		<g transform="matrix(1 0 0 1 -8.349999999999994 66.57)"  >
<polygon style="stroke: none; stroke-width: 1; stroke-dasharray: none; stroke-linecap: butt; stroke-dashoffset: 0; stroke-linejoin: miter; stroke-miterlimit: 4; fill: rgb(255,208,89); fill-rule: evenodd; opacity: 1;"  points="-16.58,-16.539999999999992 1.421085e-14,16.539999999999992 16.580000000000013,-16.539999999999992 " />
</g>
		<g transform="matrix(1 0 0 1 8.465000000000002 66.57)"  >
<polygon style="stroke: none; stroke-width: 1; stroke-dasharray: none; stroke-linecap: butt; stroke-dashoffset: 0; stroke-linejoin: miter; stroke-miterlimit: 4; fill: rgb(253,196,70); fill-rule: evenodd; opacity: 1;"  points="-0.0049999999999954525,-16.539999999999992 -16.584999999999994,16.539999999999992 16.585000000000008,16.539999999999992 " />
</g>
		<g transform="matrix(1 0 0 1 25.29 66.57)"  >
<polygon style="stroke: none; stroke-width: 1; stroke-dasharray: none; stroke-linecap: butt; stroke-dashoffset: 0; stroke-linejoin: miter; stroke-miterlimit: 4; fill: rgb(255,208,89); fill-rule: evenodd; opacity: 1;"  points="-16.580000000000013,-16.539999999999992 -2.842171e-14,16.539999999999992 16.579999999999984,-16.539999999999992 " />
</g>
		<g transform="matrix(1 0 0 1 25.29 33.255)"  >
<polygon style="stroke: none; stroke-width: 1; stroke-dasharray: none; stroke-linecap: butt; stroke-dashoffset: 0; stroke-linejoin: miter; stroke-miterlimit: 4; fill: rgb(253,196,70); fill-rule: evenodd; opacity: 1;"  points="-2.842171e-14,-16.53500000000001 -16.580000000000013,16.534999999999997 16.579999999999984,16.534999999999997 " />
</g>
		<g transform="matrix(1 0 0 1 42.11 33.255)"  >
<polygon style="stroke: none; stroke-width: 1; stroke-dasharray: none; stroke-linecap: butt; stroke-dashoffset: 0; stroke-linejoin: miter; stroke-miterlimit: 4; fill: rgb(255,208,89); fill-rule: evenodd; opacity: 1;"  points="-16.580000000000013,-16.53500000000001 0,16.534999999999997 16.579999999999984,-16.53500000000001 " />
</g>
		<g transform="matrix(1 0 0 1 42.11 -0.060000000000002274)"  >
<polygon style="stroke: none; stroke-width: 1; stroke-dasharray: none; stroke-linecap: butt; stroke-dashoffset: 0; stroke-linejoin: miter; stroke-miterlimit: 4; fill: rgb(253,196,70); fill-rule: evenodd; opacity: 1;"  points="0,-16.540000000000006 -16.580000000000013,16.539999999999992 16.579999999999984,16.539999999999992 " />
</g>
		<g transform="matrix(1 0 0 1 58.93 -0.060000000000002274)"  >
<polygon style="stroke: none; stroke-width: 1; stroke-dasharray: none; stroke-linecap: butt; stroke-dashoffset: 0; stroke-linejoin: miter; stroke-miterlimit: 4; fill: rgb(255,208,89); fill-rule: evenodd; opacity: 1;"  points="-16.580000000000013,-16.540000000000006 0,16.539999999999992 16.579999999999984,-16.540000000000006 " />
</g>
		<g transform="matrix(1 0 0 1 58.93 -33.37)"  >
<polygon style="stroke: none; stroke-width: 1; stroke-dasharray: none; stroke-linecap: butt; stroke-dashoffset: 0; stroke-linejoin: miter; stroke-miterlimit: 4; fill: rgb(253,196,70); fill-rule: evenodd; opacity: 1;"  points="0,-16.540000000000006 -16.580000000000013,16.539999999999992 16.579999999999984,16.539999999999992 " />
</g>
		<g transform="matrix(1 0 0 1 -42.11 33.375)"  >
<polygon style="stroke: none; stroke-width: 1; stroke-dasharray: none; stroke-linecap: butt; stroke-dashoffset: 0; stroke-linejoin: miter; stroke-miterlimit: 4; fill: rgb(68,171,182); fill-rule: evenodd; opacity: 1;"  points="0,-16.53500000000001 -16.58,16.534999999999997 16.58,16.534999999999997 " />
</g>
		<g transform="matrix(1 0 0 1 25.29 -33.25)"  >
<polygon style="stroke: none; stroke-width: 1; stroke-dasharray: none; stroke-linecap: butt; stroke-dashoffset: 0; stroke-linejoin: miter; stroke-miterlimit: 4; fill: rgb(253,196,70); fill-rule: evenodd; opacity: 1;"  points="-2.842171e-14,-16.54 -16.580000000000013,16.540000000000006 16.579999999999984,16.540000000000006 " />
</g>
		<g transform="matrix(1 0 0 1 8.349999999999998 -33.25)"  >
<polygon style="stroke: none; stroke-width: 1; stroke-dasharray: none; stroke-linecap: butt; stroke-dashoffset: 0; stroke-linejoin: miter; stroke-miterlimit: 4; fill: rgb(68,171,182); fill-rule: evenodd; opacity: 1;"  points="-16.58,-16.54 0,16.540000000000006 16.58,-16.54 " />
</g>
		<g transform="matrix(1 0 0 1 8.349999999999998 -66.565)"  >
<polygon style="stroke: none; stroke-width: 1; stroke-dasharray: none; stroke-linecap: butt; stroke-dashoffset: 0; stroke-linejoin: miter; stroke-miterlimit: 4; fill: rgb(68,171,182); fill-rule: evenodd; opacity: 1;"  points="0,-16.535 -16.58,16.535000000000004 16.58,16.535000000000004 " />
</g>
		<g transform="matrix(1 0 0 1 -8.470000000000002 -66.565)"  >
<polygon style="stroke: none; stroke-width: 1; stroke-dasharray: none; stroke-linecap: butt; stroke-dashoffset: 0; stroke-linejoin: miter; stroke-miterlimit: 4; fill: rgb(79,181,185); fill-rule: evenodd; opacity: 1;"  points="-16.58,-16.535 0,16.535000000000004 16.58,-16.535 " />
</g>
		<g transform="matrix(1 0 0 1 -25.279999999999998 -66.565)"  >
<polygon style="stroke: none; stroke-width: 1; stroke-dasharray: none; stroke-linecap: butt; stroke-dashoffset: 0; stroke-linejoin: miter; stroke-miterlimit: 4; fill: rgb(68,171,182); fill-rule: evenodd; opacity: 1;"  points="-1.421085e-14,-16.535 -16.580000000000005,16.535000000000004 16.58,16.535000000000004 " />
</g>
		<g transform="matrix(1 0 0 1 -25.279999999999998 -33.25)"  >
<polygon style="stroke: none; stroke-width: 1; stroke-dasharray: none; stroke-linecap: butt; stroke-dashoffset: 0; stroke-linejoin: miter; stroke-miterlimit: 4; fill: rgb(79,181,185); fill-rule: evenodd; opacity: 1;"  points="-16.580000000000005,-16.54 -1.421085e-14,16.540000000000006 16.58,-16.54 " />
</g>
		<g transform="matrix(1 0 0 1 -42.11 -33.25)"  >
<polygon style="stroke: none; stroke-width: 1; stroke-dasharray: none; stroke-linecap: butt; stroke-dashoffset: 0; stroke-linejoin: miter; stroke-miterlimit: 4; fill: rgb(68,171,182); fill-rule: evenodd; opacity: 1;"  points="0,-16.54 -16.58,16.540000000000006 16.58,16.540000000000006 " />
</g>
		<g transform="matrix(1 0 0 1 -42.11 0.060000000000005826)"  >
<polygon style="stroke: none; stroke-width: 1; stroke-dasharray: none; stroke-linecap: butt; stroke-dashoffset: 0; stroke-linejoin: miter; stroke-miterlimit: 4; fill: rgb(79,181,185); fill-rule: evenodd; opacity: 1;"  points="-16.58,-16.540000000000006 0,16.540000000000006 16.58,-16.540000000000006 " />
</g>
		<g transform="matrix(1 0 0 1 -58.93000000000001 0.060000000000005826)"  >
<polygon style="stroke: none; stroke-width: 1; stroke-dasharray: none; stroke-linecap: butt; stroke-dashoffset: 0; stroke-linejoin: miter; stroke-miterlimit: 4; fill: rgb(68,171,182); fill-rule: evenodd; opacity: 1;"  points="7.10543e-15,-16.540000000000006 -16.579999999999995,16.540000000000006 16.580000000000005,16.540000000000006 " />
</g>
		<g transform="matrix(1 0 0 1 -58.93000000000001 33.375)"  >
<polygon style="stroke: none; stroke-width: 1; stroke-dasharray: none; stroke-linecap: butt; stroke-dashoffset: 0; stroke-linejoin: miter; stroke-miterlimit: 4; fill: rgb(79,181,185); fill-rule: evenodd; opacity: 1;"  points="-16.579999999999995,-16.53500000000001 7.10543e-15,16.534999999999997 16.580000000000005,-16.53500000000001 " />
</g>
</g>
</g>
</svg>